PathFileType	4	(X/Y/Z)	/Users/itak/Documents/Research/Walk-IL/dataset/trc/00417_00012.trc
DataRate	CameraRate	NumFrames	NumMarkers	Units	OrigDataRate	OrigDataStartFrame	OrigNumFrames
100.000000	100.000000	4	54	mm	100.000000	183	735
Frame#	Time	RPSI			LPSI			L3			STRN			T10			C7			CLAV			RBAK			LBAK			LSHO			LUPA			LAEL			LAOL			LWTS			LWPS			LFRA			LIFD			LHPS			LHTS			RSHO			RUPA			RAEL			RAOL			RWTS			RWPS			RFRA			RIFD			RHPS			RBHD			LFHD			RFHD			LBHD			LHIP			RHIP			RASI			LASI			LKNE			LTHI			LANK			LTIP			LTOE			LMT1			LMT5			LHEE			RKNE			RTHI			RANK			RTIP			RTOE			RMT1			RMT5			RHEE			RHTS			*53			
		X1	Y1	Z1	X2	Y2	Z2	X3	Y3	Z3	X4	Y4	Z4	X5	Y5	Z5	X6	Y6	Z6	X7	Y7	Z7	X8	Y8	Z8	X9	Y9	Z9	X10	Y10	Z10	X11	Y11	Z11	X12	Y12	Z12	X13	Y13	Z13	X14	Y14	Z14	X15	Y15	Z15	X16	Y16	Z16	X17	Y17	Z17	X18	Y18	Z18	X19	Y19	Z19	X20	Y20	Z20	X21	Y21	Z21	X22	Y22	Z22	X23	Y23	Z23	X24	Y24	Z24	X25	Y25	Z25	X26	Y26	Z26	X27	Y27	Z27	X28	Y28	Z28	X29	Y29	Z29	X30	Y30	Z30	X31	Y31	Z31	X32	Y32	Z32	X33	Y33	Z33	X34	Y34	Z34	X35	Y35	Z35	X36	Y36	Z36	X37	Y37	Z37	X38	Y38	Z38	X39	Y39	Z39	X40	Y40	Z40	X41	Y41	Z41	X42	Y42	Z42	X43	Y43	Z43	X44	Y44	Z44	X45	Y45	Z45	X46	Y46	Z46	X47	Y47	Z47	X48	Y48	Z48	X49	Y49	Z49	X50	Y50	Z50	X51	Y51	Z51	X52	Y52	Z52	X53	Y53	Z53	X54	Y54	Z54	

184	1.83	-1542.076904296875	992.406005859375	-511.8623352050781	-1553.740356445312	983.6326904296875	-642.5386352539062	-1546.16796875	1056.662353515625	-575.3793334960938	-1315.553955078125	1215.675903320312	-581.2965698242188	-1558.205322265625	1158.948120117188	-579.8041381835938	-1529.041015625	1409.248657226562	-588.437744140625	-1371.233642578125	1333.1259765625	-580.8392333984375	-1567.243774414062	1261.888671875	-522.0336303710938	-1539.79638671875	1371.540771484375	-693.3643798828125	-1452.100830078125	1389.736572265625	-741.2684326171875	-1466.83447265625	1273.366943359375	-814.2794799804688	-1437.375122070312	1075.447021484375	-833.0975952148438	-1499.84619140625	1054.23974609375	-779.0670166015625	-1343.148315429688	863.334228515625	-773.9772338867188	-1383.797607421875	846.4555053710938	-841.258056640625	-1414.889526367188	971.4082641601562	-838.4573974609375	-1329.526733398438	683.7615966796875	-773.098388671875	-1365.415161132812	761.89990234375	-829.2415161132812	-1315.068969726562	768.4755859375	-789.8464965820312	-1470.703369140625	1388.94921875	-429.6619567871094	-1481.390869140625	1323.111083984375	-370.6669921875	-1461.80517578125	1059.977172851562	-336.1819763183594	-1480.109741210938	1052.015380859375	-427.8104553222656	-1319.309814453125	854.3355102539062	-364.8992614746094	-1366.756469726562	837.1397094726562	-303.8079528808594	-1434.318603515625	995.8067016601562	-320.2278137207031	-1312.311157226562	676.25146484375	-351.8011474609375	-1357.16357421875	750.7537231445312	-302.9961547851562	-1496.7529296875	1602.448852539062	-501.8009643554688	-1337.118041992188	1602.08447265625	-620.1777954101562	-1363.923095703125	1603.12841796875	-500.0645446777344	-1479.032348632812	1600.183715820312	-662.8787231445312	-1472.4990234375	970.014404296875	-759.63623046875	-1454.246459960938	967.1897583007812	-401.3103332519531	-1324.570678710938	973.435546875	-462.9787902832031	-1357.439575195312	966.2474365234375	-723.8632202148438	-1439.516479492188	475.2467651367188	-736.8683471679688	-1442.859619140625	617.8848266601562	-749.2373046875	-1532.950805664062	43.73620986938477	-683.2807006835938	-1488.275512695312	245.2021179199219	-723.3135986328125	-1314.075805664062	45.6509895324707	-631.9641723632812	-1391.98486328125	45.83771514892578	-596.8074951171875	-1406.345703125	42.10188293457031	-702.2505493164062	-1566.121704101562	42.02681350708008	-624.0404052734375	-1436.310180664062	476.0935974121094	-428.4932861328125	-1385.279663085938	738.685546875	-408.0768127441406	-1496.289184570312	58.33248138427734	-465.7437133789062	-1432.195922851562	350.3633728027344	-444.824462890625	-1316.659912109375	40.09558868408203	-531.35595703125	-1394.891357421875	43.98924255371094	-560.377197265625	-1411.252685546875	48.65917205810547	-462.5296325683594	-1568.979736328125	45.04585647583008	-518.0317993164062	-1302.995849609375	746.9093627929688	-341.896728515625	nan	nan	nan	
185	1.84	-1542.104736328125	992.4141845703125	-511.8405151367188	-1553.743041992188	983.6401977539062	-642.5204467773438	-1546.173706054688	1056.692016601562	-575.3596801757812	-1315.562377929688	1215.615966796875	-581.2079467773438	-1558.202880859375	1158.991577148438	-579.7846069335938	-1528.970581054688	1409.27880859375	-588.402099609375	-1371.1552734375	1333.100219726562	-580.7373657226562	-1567.221801757812	1261.929443359375	-522.0215454101562	-1539.69140625	1371.58349609375	-693.3402709960938	-1451.988891601562	1389.749145507812	-741.2103881835938	-1466.707275390625	1273.382934570312	-814.2203979492188	-1437.301391601562	1075.459838867188	-833.0087890625	-1499.793090820312	1054.27197265625	-778.9906005859375	-1343.074462890625	863.373046875	-773.8732299804688	-1383.73291015625	846.44091796875	-841.1320190429688	-1414.798828125	971.4002075195312	-838.3510131835938	-1329.531494140625	683.7114868164062	-772.9283447265625	-1365.355224609375	761.9092407226562	-829.1056518554688	-1315.018798828125	768.4629516601562	-789.7262573242188	-1470.656005859375	1388.959106445312	-429.6051940917969	-1481.407958984375	1323.1259765625	-370.6174926757812	-1461.946899414062	1059.971313476562	-336.164306640625	-1480.142456054688	1052.018432617188	-427.8036804199219	-1319.488525390625	854.2864990234375	-364.7946472167969	-1366.906616210938	837.110595703125	-303.7515869140625	-1434.473266601562	995.7929077148438	-320.2052917480469	-1312.38525390625	676.2623901367188	-351.74658203125	-1357.30810546875	750.697509765625	-302.9407348632812	-1496.660278320312	1602.442016601562	-501.7540588378906	-1336.883056640625	1602.0703125	-620.0648193359375	-1363.83447265625	1603.10546875	-499.9895629882812	-1478.934204101562	1600.19970703125	-662.840087890625	-1472.480590820312	970.0260620117188	-759.5948486328125	-1454.307983398438	967.2001342773438	-401.2818603515625	-1324.599731445312	973.4401245117188	-462.8865356445312	-1357.5341796875	966.2147216796875	-723.8014526367188	-1439.474487304688	475.2501220703125	-736.8200073242188	-1442.828491210938	617.8953247070312	-749.1990356445312	-1532.95556640625	43.75281143188477	-683.2698364257812	-1488.243286132812	245.2003479003906	-723.2910766601562	-1314.078491210938	45.6474723815918	-631.9523315429688	-1391.989013671875	45.8318977355957	-596.7970581054688	-1406.381103515625	42.13207626342773	-702.2501220703125	-1566.104370117188	42.00659942626953	-624.0305786132812	-1436.350341796875	476.1343994140625	-428.4434509277344	-1385.327270507812	738.6879272460938	-408.0298461914062	-1496.320678710938	58.33443069458008	-465.7333679199219	-1432.198852539062	350.3893737792969	-444.7279968261719	-1316.658813476562	40.1054801940918	-531.3536987304688	-1394.930053710938	43.98065185546875	-560.3843994140625	-1411.243286132812	48.64892959594727	-462.5079040527344	-1568.978393554688	45.0321159362793	-518.0220947265625	-1303.047607421875	746.7798461914062	-341.7460021972656	nan	nan	nan	
186	1.85	-1542.129150390625	992.4217529296875	-511.8207092285156	-1553.74951171875	983.64892578125	-642.5061645507812	-1546.177001953125	1056.719970703125	-575.3401489257812	-1315.566528320312	1215.554809570312	-581.1133422851562	-1558.197631835938	1159.035400390625	-579.7625122070312	-1528.90478515625	1409.307861328125	-588.3668823242188	-1371.079467773438	1333.082153320312	-580.6531372070312	-1567.1962890625	1261.969360351562	-522.0086669921875	-1539.587280273438	1371.627807617188	-693.31640625	-1451.878295898438	1389.762573242188	-741.1534423828125	-1466.578002929688	1273.399291992188	-814.1598510742188	-1437.231689453125	1075.470703125	-832.9173583984375	-1499.7490234375	1054.304443359375	-778.91259765625	-1342.9697265625	863.4240112304688	-773.7421875	-1383.668090820312	846.4278564453125	-840.9902954101562	-1414.703125	971.3919677734375	-838.2349243164062	-1329.476928710938	683.6536865234375	-772.7301025390625	-1365.309326171875	761.9181518554688	-828.9479370117188	-1314.9951171875	768.4599609375	-789.6160278320312	-1470.60546875	1388.966552734375	-429.5458984375	-1481.4287109375	1323.135131835938	-370.5744934082031	-1462.086059570312	1059.9609375	-336.1542358398438	-1480.171630859375	1052.019653320312	-427.7975769042969	-1319.680053710938	854.2210693359375	-364.6951293945312	-1367.06298828125	837.080810546875	-303.6943969726562	-1434.6171875	995.7771606445312	-320.1837463378906	-1312.485473632812	676.2728271484375	-351.7022094726562	-1357.487060546875	750.63720703125	-302.8796997070312	-1496.561279296875	1602.43115234375	-501.6939392089844	-1336.65625	1602.048706054688	-619.9622192382812	-1363.737426757812	1603.07568359375	-499.9226684570312	-1478.835815429688	1600.2216796875	-662.8067016601562	-1472.462890625	970.0372314453125	-759.5570068359375	-1454.359130859375	967.209716796875	-401.2503662109375	-1324.626342773438	973.4528198242188	-462.7982788085938	-1357.644409179688	966.1723022460938	-723.7369384765625	-1439.4365234375	475.2540283203125	-736.77294921875	-1442.800903320312	617.9058837890625	-749.1636962890625	-1532.958984375	43.7705192565918	-683.2582397460938	-1488.212280273438	245.1977386474609	-723.269287109375	-1314.080200195312	45.64456939697266	-631.941650390625	-1391.994506835938	45.82516479492188	-596.7885131835938	-1406.419189453125	42.16559982299805	-702.24853515625	-1566.09765625	41.99583053588867	-624.0244750976562	-1436.390869140625	476.1693115234375	-428.3970947265625	-1385.383056640625	738.685546875	-407.9832458496094	-1496.344482421875	58.33428192138672	-465.7213134765625	-1432.208740234375	350.4139709472656	-444.6412353515625	-1316.659790039062	40.11122894287109	-531.3524169921875	-1394.9306640625	43.98055648803711	-560.376220703125	-1411.247802734375	48.6318359375	-462.4899597167969	-1568.979125976562	45.02180862426758	-518.0137939453125	-1303.047119140625	746.6614990234375	-341.600341796875	nan	nan	nan	
187	1.86	-1542.149780273438	992.4283447265625	-511.8026428222656	-1553.7587890625	983.6592407226562	-642.4954833984375	-1546.176879882812	1056.74658203125	-575.3208618164062	-1315.568481445312	1215.49169921875	-581.0135498046875	-1558.189331054688	1159.078735351562	-579.7387084960938	-1528.84423828125	1409.33544921875	-588.3325805664062	-1371.008422851562	1333.071044921875	-580.5839233398438	-1567.166137695312	1262.007690429688	-521.9947509765625	-1539.48486328125	1371.6728515625	-693.293212890625	-1451.768188476562	1389.77685546875	-741.0983276367188	-1466.44873046875	1273.415649414062	-814.0989379882812	-1437.1630859375	1075.478881835938	-832.8244018554688	-1499.711791992188	1054.33740234375	-778.8350219726562	-1342.820678710938	863.48779296875	-773.5870361328125	-1383.603149414062	846.4169921875	-840.8358764648438	-1414.601806640625	971.3837280273438	-838.1116333007812	-1329.363891601562	683.59912109375	-772.5144653320312	-1365.282104492188	761.9271240234375	-828.771484375	-1315.00048828125	768.4602661132812	-789.5104370117188	-1470.552124023438	1388.972534179688	-429.4848327636719	-1481.4501953125	1323.139404296875	-370.5365905761719	-1462.216064453125	1059.947143554688	-336.1480102539062	-1480.196411132812	1052.017944335938	-427.7908630371094	-1319.87841796875	854.1436157226562	-364.6050720214844	-1367.221801757812	837.0504150390625	-303.6358642578125	-1434.747680664062	995.76025390625	-320.1611022949219	-1312.603881835938	676.2837524414062	-351.6690368652344	-1357.69384765625	750.5721435546875	-302.8116760253906	-1496.44677734375	1602.41357421875	-501.61328125	-1336.439086914062	1602.018798828125	-619.8670654296875	-1363.634643554688	1603.039916992188	-499.8601379394531	-1478.73583984375	1600.25048828125	-662.7766723632812	-1472.445556640625	970.0480346679688	-759.5223388671875	-1454.398193359375	967.2179565429688	-401.2144165039062	-1324.65283203125	973.471435546875	-462.7144470214844	-1357.753051757812	966.12744140625	-723.671875	-1439.402954101562	475.2586669921875	-736.7274169921875	-1442.774536132812	617.916015625	-749.130126953125	-1532.960205078125	43.78858184814453	-683.2465209960938	-1488.184448242188	245.195068359375	-723.2484130859375	-1314.078125	45.64326477050781	-631.9342651367188	-1392.000244140625	45.81782913208008	-596.78271484375	-1406.458618164062	42.20183944702148	-702.2462768554688	-1566.102294921875	41.99575805664062	-624.0223999023438	-1436.430541992188	476.1978759765625	-428.3554077148438	-1385.448486328125	738.6815795898438	-407.9351806640625	-1496.361328125	58.33254623413086	-465.7088317871094	-1432.223510742188	350.4366760253906	-444.565673828125	-1316.659912109375	40.11479568481445	-531.3536987304688	-1394.889770507812	43.98952484130859	-560.3482055664062	-1411.272338867188	48.60703277587891	-462.4768981933594	-1568.9814453125	45.01545333862305	-518.0071411132812	-1303.022705078125	746.556884765625	-341.4739990234375	nan	nan	nan	
